<svg width="255" height="45" viewBox="0 0 255 45" fill="none" xmlns="http://www.w3.org/2000/svg">
<g clip-path="url(#clip0_11381_11753)">
<path d="M30.5374 34.5454H25.5266V21.5868C25.5266 19.9826 25.2386 18.7848 24.668 17.999C24.0973 17.2131 23.1897 16.8175 21.9506 16.8175C21.1137 16.8175 20.38 17.0017 19.7441 17.3703C19.1083 17.7388 18.6137 18.2808 18.2605 18.9908C17.9018 19.7008 17.7279 20.5625 17.7279 21.5814V34.54H12.7171V21.5814C12.7171 19.9772 12.4291 18.7794 11.8584 17.9935C11.2878 17.2077 10.3802 16.812 9.14111 16.812C8.277 16.812 7.52158 16.9963 6.89116 17.3649C6.2553 17.7334 5.77162 18.2754 5.42923 18.9853C5.08685 19.6953 4.91837 20.5571 4.91837 21.576V34.5345H0V13.2621H4.91837V16.3622C5.53793 15.1915 6.34769 14.3027 7.3531 13.7011C8.35852 13.0995 9.54327 12.796 10.9019 12.796C12.478 12.796 13.7878 13.1212 14.8203 13.7662C15.8529 14.4111 16.6083 15.3541 17.0703 16.5898C17.8148 15.3541 18.7496 14.4165 19.88 13.7662C21.0104 13.1158 22.2984 12.796 23.7549 12.796C25.2114 12.796 26.532 13.1104 27.5375 13.7445C28.5429 14.3786 29.2929 15.3108 29.7874 16.5465C30.282 17.7822 30.532 19.278 30.532 21.034V34.5454H30.5374Z" fill="#10384F"/>
<path d="M41.6729 44.729H36.3361L41.9066 32.0468L33.3198 13.2566H39.0751L45.8956 30.1012L43.5316 29.9602L50.2162 13.2512H55.602L41.6783 44.7236L41.6729 44.729Z" fill="#10384F"/>
<path d="M75.1776 17.6087H90.8186C90.8784 19.9826 90.5686 22.2318 89.8893 24.34C89.2099 26.4537 88.1882 28.329 86.8241 29.9603C85.46 31.597 83.7699 32.8815 81.7427 33.8246C79.7156 34.7676 77.4167 35.2337 74.8516 35.2337C72.2864 35.2337 70.1506 34.8218 68.0745 34.0088C66.0039 33.1904 64.1996 32.0252 62.667 30.5131C61.1345 29.001 59.9497 27.2125 59.1182 25.1422C58.2813 23.0772 57.8628 20.8064 57.8628 18.3404C57.8628 15.8744 58.2867 13.6144 59.1399 11.5603C59.9932 9.50624 61.1834 7.73398 62.716 6.23814C64.2485 4.74229 66.0583 3.59331 68.1452 2.79119C70.2321 1.98907 72.4983 1.58801 74.9439 1.58801C77.0798 1.58801 79.0145 1.87526 80.7427 2.44433C82.4764 3.0134 84.0307 3.83178 85.4057 4.89947C86.7807 5.96173 87.9491 7.25163 88.911 8.76373L84.4546 11.7283C83.5579 10.1837 82.3134 8.95342 80.721 8.02665C79.1286 7.09988 77.1993 6.6392 74.9439 6.6392C72.8407 6.6392 70.9386 7.12697 69.2376 8.09711C67.5365 9.06724 66.1724 10.4276 65.1561 12.1673C64.1344 13.9125 63.6235 15.972 63.6235 18.3458C63.6235 20.7197 64.1235 22.7521 65.1344 24.5243C66.1398 26.2966 67.493 27.6786 69.1941 28.665C70.8951 29.6514 72.8136 30.1446 74.9494 30.1446C76.4059 30.1446 77.7048 29.944 78.846 29.543C79.9928 29.1419 80.9819 28.5728 81.8134 27.8303C82.6503 27.0878 83.3459 26.2424 83.9003 25.2831C84.4601 24.3292 84.8731 23.3103 85.1557 22.2263H75.1776V17.5979V17.6087Z" fill="#10384F"/>
<path d="M99.5632 33.624C97.9056 32.6972 96.6339 31.4019 95.7372 29.738C94.8405 28.0742 94.3894 26.1285 94.3894 23.9064C94.3894 21.6843 94.8459 19.6953 95.7589 18.0314C96.672 16.3676 97.9654 15.0777 99.6339 14.1672C101.302 13.2566 103.27 12.8014 105.525 12.8014C107.78 12.8014 109.704 13.235 111.28 14.0967C112.856 14.9584 114.074 16.1996 114.922 17.8201C115.775 19.4406 116.199 21.3917 116.199 23.6734C116.199 23.9227 116.193 24.1828 116.177 24.4592C116.161 24.7356 116.139 24.9362 116.106 25.0608H97.3567V21.6355H111.835L110.302 23.7655C110.395 23.5812 110.492 23.3265 110.601 23.0013C110.71 22.6761 110.764 22.4051 110.764 22.1938C110.764 21.0502 110.541 20.0638 110.09 19.2346C109.639 18.4 109.025 17.755 108.232 17.2889C107.443 16.8282 106.52 16.5952 105.471 16.5952C104.204 16.5952 103.117 16.8716 102.221 17.4298C101.324 17.9881 100.645 18.7902 100.177 19.8362C99.7154 20.8876 99.4654 22.1829 99.4328 23.7221C99.4328 25.2668 99.6665 26.5675 100.128 27.6352C100.59 28.6975 101.281 29.5104 102.194 30.0632C103.107 30.6215 104.21 30.8979 105.514 30.8979C106.818 30.8979 108.068 30.6215 109.09 30.0632C110.112 29.5104 110.96 28.6595 111.644 27.516L115.96 29.2774C114.845 31.1905 113.405 32.6268 111.644 33.5806C109.884 34.5345 107.764 35.0169 105.286 35.0169C103.117 35.0169 101.21 34.5562 99.5523 33.6294L99.5632 33.624Z" fill="#10384F"/>
<path d="M133.742 18.0261C133.09 17.2239 132.084 16.8229 130.726 16.8229C129.796 16.8229 128.976 17.018 128.264 17.4028C127.552 17.7876 126.997 18.3458 126.595 19.0666C126.193 19.7929 125.992 20.6329 125.992 21.5868V34.5454H120.981V13.2621H125.992V16.5465C126.671 15.2837 127.546 14.3406 128.611 13.7228C129.677 13.1049 130.954 12.796 132.437 12.796C134.85 12.796 136.693 13.5277 137.959 14.9964C139.225 16.4598 139.861 18.4759 139.861 21.034V34.5454H134.709V21.5868C134.709 20.0151 134.383 18.8282 133.736 18.0206L133.742 18.0261Z" fill="#10384F"/>
<path d="M153.975 23.2072L153.883 24.4104L149.383 34.5453H143.209L159.078 0.346802L174.947 34.5453H168.774L164.366 24.6868L164.225 23.3427L159.073 11.3109L153.97 23.2018L153.975 23.2072ZM151.611 21.5921H166.692L167.757 26.2206H150.589L151.611 21.5921Z" fill="#10384F"/>
<path d="M181.333 29.4779C182.029 30.0199 182.73 30.4209 183.442 30.6811C184.154 30.9412 184.866 31.0767 185.577 31.0767C186.474 31.0767 187.181 30.8762 187.692 30.4751C188.202 30.0741 188.458 29.5213 188.458 28.8113C188.458 28.1934 188.257 27.6623 187.855 27.2124C187.452 26.768 186.893 26.3778 186.186 26.058C185.474 25.7329 184.637 25.4023 183.681 25.0608C182.724 24.6923 181.768 24.2533 180.828 23.7438C179.882 23.2344 179.11 22.5623 178.507 21.7331C177.904 20.9039 177.599 19.8525 177.599 18.5842C177.599 17.316 177.931 16.2104 178.599 15.3432C179.262 14.4815 180.159 13.8366 181.29 13.4247C182.42 13.0073 183.632 12.8014 184.931 12.8014C186.105 12.8014 187.213 12.9694 188.251 13.3108C189.289 13.6523 190.224 14.0967 191.061 14.6549C191.898 15.2132 192.61 15.8419 193.197 16.5518L190.414 19.511C189.702 18.6764 188.849 17.9989 187.86 17.4732C186.871 16.9475 185.849 16.6873 184.795 16.6873C184.083 16.6873 183.496 16.8445 183.029 17.148C182.567 17.4569 182.333 17.9068 182.333 18.4921C182.333 18.9853 182.54 19.4243 182.958 19.8091C183.376 20.1939 183.931 20.5408 184.626 20.8497C185.322 21.1586 186.105 21.4838 186.969 21.8198C188.143 22.2805 189.224 22.79 190.219 23.3482C191.208 23.901 192.007 24.5839 192.61 25.386C193.213 26.1881 193.518 27.2395 193.518 28.5349C193.518 30.5402 192.827 32.1498 191.452 33.3693C190.077 34.5887 188.213 35.1957 185.86 35.1957C184.404 35.1957 183.067 34.9735 181.844 34.5237C180.621 34.0792 179.556 33.4885 178.643 32.7677C177.73 32.0414 176.964 31.2772 176.344 30.4751L179.268 27.5593C179.947 28.3018 180.637 28.9413 181.333 29.4779Z" fill="#10384F"/>
<path d="M201.007 29.4779C201.702 30.0199 202.403 30.4209 203.115 30.6811C203.827 30.9412 204.539 31.0767 205.251 31.0767C206.148 31.0767 206.854 30.8762 207.365 30.4751C207.876 30.0741 208.131 29.5213 208.131 28.8113C208.131 28.1934 207.93 27.6623 207.528 27.2124C207.126 26.768 206.566 26.3778 205.86 26.058C205.148 25.7329 204.311 25.4023 203.354 25.0608C202.398 24.6923 201.441 24.2533 200.501 23.7438C199.556 23.2344 198.784 22.5623 198.181 21.7331C197.577 20.9039 197.273 19.8525 197.273 18.5842C197.273 17.316 197.604 16.2104 198.273 15.3432C198.936 14.4815 199.833 13.8366 200.963 13.4247C202.094 13.0073 203.305 12.8014 204.604 12.8014C205.778 12.8014 206.887 12.9694 207.925 13.3108C208.963 13.6523 209.898 14.0967 210.735 14.6549C211.572 15.2132 212.284 15.8419 212.87 16.5518L210.088 19.511C209.376 18.6764 208.523 17.9989 207.534 17.4732C206.545 16.9475 205.523 16.6873 204.468 16.6873C203.757 16.6873 203.17 16.8445 202.702 17.148C202.24 17.4569 202.007 17.9068 202.007 18.4921C202.007 18.9853 202.213 19.4243 202.632 19.8091C203.05 20.1939 203.604 20.5408 204.3 20.8497C204.996 21.1586 205.778 21.4838 206.642 21.8198C207.816 22.2805 208.898 22.79 209.892 23.3482C210.881 23.901 211.68 24.5839 212.284 25.386C212.887 26.1881 213.191 27.2395 213.191 28.5349C213.191 30.5402 212.501 32.1498 211.126 33.3693C209.751 34.5887 207.887 35.1957 205.534 35.1957C204.077 35.1957 202.74 34.9735 201.517 34.5237C200.295 34.0792 199.229 33.4885 198.316 32.7677C197.403 32.0414 196.637 31.2772 196.018 30.4751L198.941 27.5593C199.621 28.3018 200.311 28.9413 201.007 29.4779Z" fill="#10384F"/>
<path d="M230.31 29.4779C231.006 30.0199 231.707 30.4209 232.419 30.6811C233.131 30.9412 233.843 31.0767 234.555 31.0767C235.452 31.0767 236.158 30.8762 236.669 30.4751C237.18 30.0741 237.435 29.5213 237.435 28.8113C237.435 28.1934 237.234 27.6623 236.832 27.2124C236.43 26.768 235.87 26.3778 235.163 26.058C234.452 25.7329 233.615 25.4023 232.658 25.0608C231.702 24.6923 230.745 24.2533 229.805 23.7438C228.859 23.2344 228.088 22.5623 227.484 21.7331C226.881 20.9039 226.577 19.8525 226.577 18.5842C226.577 17.316 226.908 16.2104 227.577 15.3432C228.24 14.4815 229.136 13.8366 230.267 13.4247C231.397 13.0073 232.609 12.8014 233.908 12.8014C235.082 12.8014 236.191 12.9694 237.229 13.3108C238.267 13.6523 239.201 14.0967 240.038 14.6549C240.875 15.2132 241.587 15.8419 242.174 16.5518L239.392 19.511C238.68 18.6764 237.826 17.9989 236.837 17.4732C235.848 16.9475 234.827 16.6873 233.772 16.6873C233.06 16.6873 232.473 16.8445 232.006 17.148C231.544 17.4569 231.31 17.9068 231.31 18.4921C231.31 18.9853 231.517 19.4243 231.935 19.8091C232.354 20.1939 232.908 20.5408 233.604 20.8497C234.299 21.1586 235.082 21.4838 235.946 21.8198C237.12 22.2805 238.201 22.79 239.196 23.3482C240.185 23.901 240.984 24.5839 241.587 25.386C242.19 26.1881 242.495 27.2395 242.495 28.5349C242.495 30.5402 241.805 32.1498 240.43 33.3693C239.055 34.5887 237.191 35.1957 234.837 35.1957C233.381 35.1957 232.044 34.9735 230.821 34.5237C229.598 34.0792 228.533 33.4885 227.62 32.7677C226.707 32.0414 225.941 31.2772 225.321 30.4751L228.245 27.5593C228.924 28.3018 229.615 28.9413 230.31 29.4779Z" fill="#10384F"/>
<path d="M255 13.262V17.6574H248.321V13.262H255ZM251.429 5.85327V34.5453H246.462V5.85327H251.429Z" fill="#10384F"/>
<path d="M81.982 37.4286C81.9222 37.4828 81.8733 37.537 81.8135 37.5912C80.9766 38.3337 79.9875 38.9028 78.8462 39.3038C77.6995 39.7049 76.4006 39.9054 74.9495 39.9054C72.8137 39.9054 70.8953 39.4122 69.1942 38.4258C68.6834 38.1332 68.2106 37.7971 67.7649 37.434L64.5911 41.889C65.6563 42.6478 66.8138 43.2765 68.0801 43.7751C70.1507 44.5935 72.4116 44.9999 74.8572 44.9999C77.4223 44.9999 79.7212 44.5284 81.7483 43.5908C82.9276 43.0434 83.9928 42.3714 84.9439 41.5909L81.982 37.434V37.4286Z" fill="#10384F"/>
</g>
<path d="M217.904 2.88305C218.508 2.29435 219.205 2 220 2C220.852 2 221.565 2.29435 222.138 2.88305C222.711 3.47175 223 4.20218 223 5.06888C223 5.93558 222.716 6.62785 222.138 7.2329C221.565 7.83796 220.852 8.14321 220 8.14321C219.205 8.14321 218.508 7.83796 217.904 7.2329C217.299 6.62785 217 5.90832 217 5.06888C217 4.22943 217.299 3.47175 217.904 2.88305ZM222.334 13.5887V35H217.661V13.5887H222.334Z" fill="#10384F"/>
<defs>
<clipPath id="clip0_11381_11753">
<rect width="255" height="45" fill="white"/>
</clipPath>
</defs>
</svg>
